<svg width="7" height="2" viewBox="0 0 7 2" fill="none" xmlns="http://www.w3.org/2000/svg">
<path d="M0.257812 1.76349C0.281013 1.40223 0.378788 1.0973 0.551136 0.848721C0.723485 0.596827 0.945549 0.40625 1.21733 0.276988C1.48911 0.147727 1.78575 0.0847536 2.10724 0.0880681C2.44863 0.0913826 2.74692 0.160985 3.00213 0.296875C3.26065 0.429451 3.51752 0.593513 3.77273 0.789062C3.98485 0.948153 4.17708 1.07576 4.34943 1.17188C4.52178 1.26468 4.71899 1.31274 4.94105 1.31605C5.26586 1.31605 5.54096 1.21496 5.76634 1.01278C5.99503 0.807292 6.13423 0.533854 6.18395 0.192471L6.75568 0.247159C6.7126 0.601799 6.60488 0.901752 6.43253 1.14702C6.26018 1.38897 6.04474 1.57292 5.78622 1.69886C5.5277 1.8215 5.24763 1.88281 4.94602 1.88281C4.63778 1.88281 4.36435 1.81984 4.12571 1.69389C3.88707 1.56463 3.64181 1.40223 3.38991 1.20668C3.17448 1.04759 2.97064 0.916667 2.77841 0.81392C2.58949 0.711174 2.36908 0.659801 2.11719 0.659801C1.76255 0.656487 1.46591 0.754261 1.22727 0.953125C0.991951 1.15199 0.859375 1.43205 0.829546 1.79332L0.257812 1.76349Z" fill="#6F6C6C"/>
</svg>
