<svg width="18" height="10" viewBox="0 0 18 10" fill="none" xmlns="http://www.w3.org/2000/svg">
<path d="M17.4992 8.2828L9.52518 0.509801C9.38512 0.37328 9.19727 0.296875 9.00168 0.296875C8.80609 0.296875 8.61824 0.37328 8.47818 0.509801L0.50118 8.2828C0.435865 8.34639 0.383951 8.42243 0.348505 8.50642C0.313057 8.5904 0.294796 8.68064 0.294796 8.7718C0.294796 8.86296 0.313057 8.9532 0.348505 9.03719C0.383951 9.12117 0.435865 9.19721 0.50118 9.2608C0.635126 9.39163 0.814939 9.46488 1.00218 9.46488C1.18942 9.46488 1.36923 9.39163 1.50318 9.2608L9.00168 1.9513L16.4987 9.2608C16.6326 9.39119 16.8121 9.46415 16.9989 9.46415C17.1858 9.46415 17.3653 9.39119 17.4992 9.2608C17.5645 9.19721 17.6164 9.12117 17.6519 9.03719C17.6873 8.9532 17.7056 8.86296 17.7056 8.7718C17.7056 8.68064 17.6873 8.5904 17.6519 8.50642C17.6164 8.42243 17.5645 8.3464 17.4992 8.2828Z" fill="#6F6C6C"/>
</svg>
