<svg width="16" height="16" viewBox="0 0 16 16" fill="none" xmlns="http://www.w3.org/2000/svg">
<g clip-path="url(#clip0_552_15305)">
<path d="M2.33388 8.47878L7.64988 13.6608C7.74325 13.7518 7.86849 13.8027 7.99888 13.8027C8.12927 13.8027 8.25451 13.7518 8.34788 13.6608L13.6659 8.47878C13.7094 8.43639 13.744 8.3857 13.7677 8.32971C13.7913 8.27372 13.8035 8.21356 13.8035 8.15278C13.8035 8.09201 13.7913 8.03185 13.7677 7.97586C13.744 7.91987 13.7094 7.86918 13.6659 7.82678C13.5766 7.73956 13.4567 7.69073 13.3319 7.69073C13.2071 7.69073 13.0872 7.73956 12.9979 7.82678L7.99888 12.6998L3.00088 7.82678C2.91163 7.73986 2.79196 7.69122 2.66738 7.69122C2.54279 7.69122 2.42313 7.73986 2.33388 7.82678C2.29034 7.86918 2.25573 7.91987 2.2321 7.97586C2.20846 8.03185 2.19629 8.09201 2.19629 8.15278C2.19629 8.21356 2.20846 8.27372 2.2321 8.32971C2.25573 8.3857 2.29034 8.43639 2.33388 8.47878V8.47878Z" fill="#6F6C6C"/>
<path d="M2.13759 3.78738L7.45359 8.96938C7.54696 9.06039 7.6722 9.11133 7.80259 9.11133C7.93298 9.11133 8.05822 9.06039 8.15159 8.96938L13.4696 3.78738C13.5131 3.74498 13.5477 3.69429 13.5714 3.6383C13.595 3.58231 13.6072 3.52215 13.6072 3.46138C13.6072 3.4006 13.595 3.34045 13.5714 3.28445C13.5477 3.22846 13.5131 3.17777 13.4696 3.13538C13.3803 3.04816 13.2604 2.99932 13.1356 2.99932C13.0108 2.99932 12.8909 3.04816 12.8016 3.13538L7.80259 8.00838L2.80459 3.13538C2.71534 3.04845 2.59568 2.99981 2.47109 2.99981C2.3465 2.99981 2.22684 3.04845 2.13759 3.13538C2.09405 3.17777 2.05944 3.22846 2.03581 3.28445C2.01218 3.34045 2 3.4006 2 3.46138C2 3.52215 2.01218 3.58231 2.03581 3.6383C2.05944 3.69429 2.09405 3.74498 2.13759 3.78738V3.78738Z" fill="#6F6C6C"/>
</g>
<defs>
<clipPath id="clip0_552_15305">
<rect width="16" height="16" fill="white"/>
</clipPath>
</defs>
</svg>
