<svg width="21" height="21" viewBox="0 0 21 21" fill="none" xmlns="http://www.w3.org/2000/svg">
<path d="M9.53189 20.3743L10.0881 20.8472C10.164 20.9306 10.2904 20.9583 10.3915 20.9583H10.4673H10.4925C10.5936 20.9583 10.72 20.9026 10.7959 20.8472L11.1246 20.5689C14.5127 17.6485 20.8333 12.1688 20.8333 6.38335C20.8333 2.93425 18.2798 0.125 15.1446 0.125C13.1978 0.125 11.4532 1.18201 10.3914 2.93425C9.35473 1.20978 7.55971 0.125 5.66343 0.125C2.52841 0.125 0 2.93425 0 6.38335C0 12.141 5.96683 17.2868 9.53176 20.3742L9.53189 20.3743ZM5.66356 1.2377C7.45876 1.2377 9.10207 2.37816 9.88585 4.15831C9.91107 4.21399 9.93647 4.29742 9.93647 4.29742C10.0375 4.51997 10.2652 4.65908 10.4675 4.6034C10.6446 4.57565 10.7962 4.46428 10.8467 4.26968C10.8467 4.26968 10.8973 4.1585 10.9225 4.10282C11.7062 2.32267 13.3244 1.21017 15.1196 1.21017C17.6985 1.21017 19.797 3.51881 19.797 6.35592C19.797 11.6129 13.729 16.8699 10.4422 19.6792L10.3916 19.707L10.1639 19.5122C6.72537 16.5359 1.01137 11.585 1.01137 6.38357C1.01137 3.54641 3.08468 1.23782 5.66348 1.23782L5.66356 1.2377Z" fill="#6F6C6C"/>
</svg>
