<svg width="22" height="19" viewBox="0 0 22 19" fill="none" xmlns="http://www.w3.org/2000/svg">
<mask id="path-1-inside-1_2052_1998" fill="white">
<path d="M21.1426 0.333138C20.9462 0.169742 20.7072 0.0612286 20.4515 0.0193551C20.1957 -0.0225184 19.9329 0.00384481 19.6916 0.0955885L0.904095 7.20689C0.61754 7.31534 0.375141 7.51028 0.213171 7.76254C0.0512014 8.0148 -0.0216296 8.31081 0.00557718 8.60628C0.032784 8.90175 0.158565 9.18078 0.364099 9.40163C0.569633 9.62248 0.843867 9.77326 1.14576 9.83141L6.08152 10.7824V16.6861C6.08123 16.9578 6.16464 17.2235 6.3212 17.4495C6.47776 17.6755 6.70041 17.8517 6.96095 17.9556C7.2215 18.0596 7.50821 18.0867 7.78477 18.0336C8.06133 17.9804 8.31529 17.8494 8.51448 17.657L11.2904 14.9824L15.4422 18.5027C15.7004 18.7236 16.0336 18.8458 16.379 18.8462C16.5291 18.846 16.6783 18.8232 16.8211 18.7786C17.0566 18.7066 17.2685 18.5764 17.4355 18.4009C17.6025 18.2254 17.7188 18.0108 17.7729 17.7785L21.6018 1.68027C21.6601 1.43672 21.6482 1.18244 21.5672 0.944968C21.4863 0.707495 21.3395 0.49588 21.1427 0.33304L21.1426 0.333138ZM1.22242 8.50223C1.21582 8.45969 1.22509 8.41628 1.24857 8.3797C1.27205 8.34312 1.30823 8.31575 1.35068 8.30244L17.0712 2.35202L6.55071 9.67262L1.38529 8.67721C1.34104 8.67133 1.30039 8.65052 1.27057 8.61848C1.24075 8.58644 1.22368 8.54525 1.22242 8.50223V8.50223ZM7.65063 16.8249C7.62216 16.8523 7.58588 16.871 7.54639 16.8786C7.50691 16.8861 7.46598 16.8823 7.42878 16.8674C7.39158 16.8526 7.35979 16.8274 7.33742 16.7952C7.31505 16.7629 7.3031 16.725 7.30309 16.6862V11.6018L10.3716 14.2034L7.65063 16.8249ZM16.5821 17.5156C16.5743 17.5487 16.5576 17.5793 16.5338 17.6044C16.51 17.6295 16.4798 17.6481 16.4462 17.6586C16.4126 17.669 16.3768 17.6709 16.3423 17.664C16.3077 17.6571 16.2757 17.6416 16.2492 17.6192L7.67028 10.3455L20.3933 1.49215L16.5821 17.5156Z"/>
</mask>
<path d="M21.1426 0.333138C20.9462 0.169742 20.7072 0.0612286 20.4515 0.0193551C20.1957 -0.0225184 19.9329 0.00384481 19.6916 0.0955885L0.904095 7.20689C0.61754 7.31534 0.375141 7.51028 0.213171 7.76254C0.0512014 8.0148 -0.0216296 8.31081 0.00557718 8.60628C0.032784 8.90175 0.158565 9.18078 0.364099 9.40163C0.569633 9.62248 0.843867 9.77326 1.14576 9.83141L6.08152 10.7824V16.6861C6.08123 16.9578 6.16464 17.2235 6.3212 17.4495C6.47776 17.6755 6.70041 17.8517 6.96095 17.9556C7.2215 18.0596 7.50821 18.0867 7.78477 18.0336C8.06133 17.9804 8.31529 17.8494 8.51448 17.657L11.2904 14.9824L15.4422 18.5027C15.7004 18.7236 16.0336 18.8458 16.379 18.8462C16.5291 18.846 16.6783 18.8232 16.8211 18.7786C17.0566 18.7066 17.2685 18.5764 17.4355 18.4009C17.6025 18.2254 17.7188 18.0108 17.7729 17.7785L21.6018 1.68027C21.6601 1.43672 21.6482 1.18244 21.5672 0.944968C21.4863 0.707495 21.3395 0.49588 21.1427 0.33304L21.1426 0.333138ZM1.22242 8.50223C1.21582 8.45969 1.22509 8.41628 1.24857 8.3797C1.27205 8.34312 1.30823 8.31575 1.35068 8.30244L17.0712 2.35202L6.55071 9.67262L1.38529 8.67721C1.34104 8.67133 1.30039 8.65052 1.27057 8.61848C1.24075 8.58644 1.22368 8.54525 1.22242 8.50223V8.50223ZM7.65063 16.8249C7.62216 16.8523 7.58588 16.871 7.54639 16.8786C7.50691 16.8861 7.46598 16.8823 7.42878 16.8674C7.39158 16.8526 7.35979 16.8274 7.33742 16.7952C7.31505 16.7629 7.3031 16.725 7.30309 16.6862V11.6018L10.3716 14.2034L7.65063 16.8249ZM16.5821 17.5156C16.5743 17.5487 16.5576 17.5793 16.5338 17.6044C16.51 17.6295 16.4798 17.6481 16.4462 17.6586C16.4126 17.669 16.3768 17.6709 16.3423 17.664C16.3077 17.6571 16.2757 17.6416 16.2492 17.6192L7.67028 10.3455L20.3933 1.49215L16.5821 17.5156Z" fill="white"/>
<path d="M21.1426 0.333138L14.1061 8.78823L21.7087 15.1151L28.805 8.22532L21.1426 0.333138ZM19.6916 0.0955885L23.5856 10.3833L23.5929 10.3805L23.6003 10.3777L19.6916 0.0955885ZM0.904095 7.20689L4.79777 17.4947L4.79812 17.4946L0.904095 7.20689ZM1.14576 9.83141L3.22688 -0.969927L3.22644 -0.970013L1.14576 9.83141ZM6.08152 10.7824H17.0815V1.69948L8.16264 -0.0189421L6.08152 10.7824ZM6.08152 16.6861L17.0815 16.698V16.6861H6.08152ZM8.51448 17.657L0.882143 9.7357L0.873688 9.74386L8.51448 17.657ZM11.2904 14.9824L18.4043 6.59233L10.8193 0.161093L3.65807 7.06106L11.2904 14.9824ZM15.4422 18.5027L22.593 10.1441L22.5746 10.1283L22.5561 10.1126L15.4422 18.5027ZM16.379 18.8462L16.3664 29.8461L16.3794 29.8462L16.3924 29.8461L16.379 18.8462ZM16.8211 18.7786L13.6062 8.25885L13.5743 8.2686L13.5424 8.27855L16.8211 18.7786ZM17.7729 17.7785L7.07141 15.2331L7.06518 15.2593L7.05908 15.2855L17.7729 17.7785ZM21.6018 1.68027L10.9042 -0.881386L10.9023 -0.873219L10.9003 -0.865048L21.6018 1.68027ZM21.1427 0.33304L28.155 -8.14207L20.5563 -14.4292L13.4802 -7.55914L21.1427 0.33304ZM1.35068 8.30244L4.64121 18.7987L4.94599 18.7032L5.24471 18.5901L1.35068 8.30244ZM17.0712 2.35202L23.3541 11.3812L13.1772 -7.93567L17.0712 2.35202ZM6.55071 9.67262L4.46922 20.4739L9.02513 21.3519L12.8336 18.7018L6.55071 9.67262ZM1.38529 8.67721L3.46678 -2.12406L3.15188 -2.18475L2.83397 -2.22698L1.38529 8.67721ZM7.65063 16.8249L15.2816 24.7475L15.2827 24.7465L7.65063 16.8249ZM7.30309 16.6862L-3.69691 16.6862L-3.69691 16.6887L7.30309 16.6862ZM7.30309 11.6018L14.4168 3.21161L-3.69691 -12.1465V11.6018H7.30309ZM10.3716 14.2034L18.0036 22.125L26.7665 13.6825L17.4853 5.81328L10.3716 14.2034ZM16.5821 17.5156L5.88069 14.9702L5.87893 14.9777L16.5821 17.5156ZM16.2492 17.6192L9.13545 26.0093L9.13555 26.0094L16.2492 17.6192ZM7.67028 10.3455L1.38739 1.31632L-10.353 9.48582L0.55656 18.7356L7.67028 10.3455ZM20.3933 1.49215L31.0948 4.03751L37.7624 -23.9951L14.1105 -7.53698L20.3933 1.49215ZM28.179 -8.12195C26.4519 -9.55929 24.3903 -10.4822 22.2286 -10.8361L18.6743 10.8748C17.0242 10.6047 15.4406 9.89878 14.1061 8.78823L28.179 -8.12195ZM22.2286 -10.8361C20.0679 -11.1899 17.8432 -10.9698 15.7828 -10.1865L23.6003 10.3777C22.0226 10.9775 20.3235 11.1448 18.6743 10.8748L22.2286 -10.8361ZM15.7975 -10.1921L-2.98993 -3.0808L4.79812 17.4946L23.5856 10.3833L15.7975 -10.1921ZM-2.98958 -3.08093C-5.43113 -2.15687 -7.57605 -0.465492 -9.04308 1.81933L9.46942 13.7058C8.32633 15.4861 6.66621 16.7876 4.79777 17.4947L-2.98958 -3.08093ZM-9.04308 1.81933C-10.515 4.11178 -11.2026 6.85051 -10.9481 9.6149L10.9592 7.59766C11.1594 9.77112 10.6174 11.9178 9.46942 13.7058L-9.04308 1.81933ZM-10.9481 9.6149C-10.6937 12.3771 -9.52155 14.9257 -7.68822 16.8956L8.41642 1.90762C9.83868 3.43584 10.7593 5.42635 10.9592 7.59766L-10.9481 9.6149ZM-7.68822 16.8956C-5.86097 18.859 -3.48077 20.1424 -0.93491 20.6328L3.22644 -0.970013C5.1685 -0.595915 7.00024 0.385934 8.41642 1.90762L-7.68822 16.8956ZM-0.935358 20.6328L4.0004 21.5837L8.16264 -0.0189421L3.22688 -0.969927L-0.935358 20.6328ZM-4.91848 10.7824V16.6861H17.0815V10.7824H-4.91848ZM-4.91847 16.6743C-4.92121 19.2168 -4.1385 21.6674 -2.72106 23.7135L15.3635 11.1855C16.4678 12.7797 17.0837 14.6989 17.0815 16.698L-4.91847 16.6743ZM-2.72106 23.7135C-1.30733 25.7543 0.659358 27.2844 2.88395 28.1722L11.038 7.73907C12.7415 8.41887 14.2628 9.59676 15.3635 11.1855L-2.72106 23.7135ZM2.88395 28.1722C5.10556 29.0587 7.52815 29.2842 9.86103 28.8358L5.70851 7.23129C7.48827 6.88921 9.33744 7.06046 11.038 7.73907L2.88395 28.1722ZM9.86103 28.8358C12.1954 28.3872 14.3932 27.2716 16.1553 25.5702L0.873688 9.74386C2.23738 8.42711 3.92721 7.57367 5.70851 7.23129L9.86103 28.8358ZM16.1468 25.5784L18.9227 22.9037L3.65807 7.06106L0.882147 9.7357L16.1468 25.5784ZM4.17654 23.3724L8.32835 26.8927L22.5561 10.1126L18.4043 6.59233L4.17654 23.3724ZM8.29142 26.8613C10.574 28.814 13.4497 29.8428 16.3664 29.8461L16.3915 7.84616C18.6176 7.8487 20.8269 8.63317 22.593 10.1441L8.29142 26.8613ZM16.3924 29.8461C17.646 29.8446 18.8962 29.6544 20.0997 29.2786L13.5424 8.27855C14.4603 7.99193 15.4122 7.84732 16.3656 7.84616L16.3924 29.8461ZM20.0359 29.2983C22.0506 28.6826 23.9087 27.5551 25.4037 25.9842L9.4672 10.8176C10.6282 9.59765 12.0626 8.73057 13.6062 8.25885L20.0359 29.2983ZM25.4037 25.9842C26.9014 24.4105 27.9806 22.4462 28.4867 20.2714L7.05908 15.2855C7.457 13.5754 8.30358 12.0402 9.4672 10.8176L25.4037 25.9842ZM28.4743 20.3238L32.3033 4.22559L10.9003 -0.865048L7.07141 15.2331L28.4743 20.3238ZM32.2994 4.24192C32.843 1.97183 32.7298 -0.400878 31.9793 -2.60323L11.1552 4.49317C10.5665 2.76576 10.4773 0.901613 10.9042 -0.881386L32.2994 4.24192ZM31.9793 -2.60323C31.2299 -4.80226 29.8887 -6.70762 28.155 -8.14207L14.1304 8.80815C12.7903 7.69938 11.7427 6.21725 11.1552 4.49317L31.9793 -2.60323ZM13.4802 -7.55914L13.4801 -7.55905L28.805 8.22532L28.8051 8.22523L13.4802 -7.55914ZM12.0925 6.8165C12.502 9.45703 11.9172 12.1229 10.5051 14.3224L-8.008 2.43697C-9.46705 4.70964 -10.0703 7.46236 -9.64765 10.188L12.0925 6.8165ZM10.5051 14.3224C9.1 16.5111 6.99676 18.0603 4.64121 18.7987L-1.93984 -2.19386C-4.3803 -1.4288 -6.55589 0.175137 -8.008 2.43697L10.5051 14.3224ZM5.24471 18.5901L20.9652 12.6397L13.1772 -7.93567L-2.54335 -1.98525L5.24471 18.5901ZM10.7883 -6.67713L0.267833 0.643474L12.8336 18.7018L23.3541 11.3812L10.7883 -6.67713ZM8.6322 -1.12865L3.46678 -2.12406L-0.696198 19.4785L4.46922 20.4739L8.6322 -1.12865ZM2.83397 -2.22698C5.26489 -1.90402 7.57593 -0.752257 9.32213 1.12365L-6.78099 16.1133C-4.97514 18.0533 -2.5828 19.2467 -0.0633856 19.5814L2.83397 -2.22698ZM9.32213 1.12365C11.077 3.00887 12.1388 5.50333 12.2176 8.1782L-9.77281 8.82626C-9.69145 11.5872 -8.5955 14.164 -6.78099 16.1133L9.32213 1.12365ZM0.0196334 8.9023C1.55412 7.42429 3.46024 6.46138 5.47657 6.07507L9.61622 27.6821C11.7115 27.2807 13.6902 26.2804 15.2816 24.7475L0.0196334 8.9023ZM5.47657 6.07507C7.49122 5.68909 9.58376 5.88388 11.5057 6.65084L3.35183 27.084C5.34819 27.8807 7.52259 28.0832 9.61622 27.6821L5.47657 6.07507ZM11.5057 6.65084C13.4307 7.41899 15.1413 8.74592 16.3757 10.5255L-1.70085 23.0649C-0.421673 24.909 1.3525 26.2862 3.35183 27.084L11.5057 6.65084ZM16.3757 10.5255C17.6139 12.3105 18.3026 14.4542 18.3031 16.6838L-3.69691 16.6887C-3.6964 18.9958 -2.98385 21.2154 -1.70085 23.0649L16.3757 10.5255ZM18.3031 16.6862V11.6018H-3.69691V16.6862H18.3031ZM0.189343 19.9919L3.25783 22.5936L17.4853 5.81328L14.4168 3.21161L0.189343 19.9919ZM2.73953 6.28182L0.018586 8.90331L15.2827 24.7465L18.0036 22.125L2.73953 6.28182ZM5.87893 14.9777C6.32698 13.0881 7.26714 11.3868 8.56151 10.0253L24.5061 25.1835C25.8481 23.7718 26.8216 22.0094 27.2854 20.0535L5.87893 14.9777ZM8.56151 10.0253C9.8533 8.6665 11.4518 7.69224 13.1791 7.15497L19.7133 28.1622C21.5078 27.604 23.1666 26.5924 24.5061 25.1835L8.56151 10.0253ZM13.1791 7.15497C14.9051 6.61809 16.7344 6.52454 18.4997 6.87761L14.1849 28.4503C16.0192 28.8172 17.9202 28.72 19.7133 28.1622L13.1791 7.15497ZM18.4997 6.87761C20.2658 7.23085 21.9455 8.02728 23.3628 9.22891L9.13555 26.0094C10.6058 27.256 12.3497 28.0833 14.1849 28.4503L18.4997 6.87761ZM23.3629 9.229L14.784 1.95528L0.55656 18.7356L9.13545 26.0093L23.3629 9.229ZM13.9532 19.3746L26.6762 10.5213L14.1105 -7.53698L1.38739 1.31632L13.9532 19.3746ZM9.69189 -1.05321L5.88069 14.9702L27.2836 20.061L31.0948 4.03751L9.69189 -1.05321Z" fill="white" mask="url(#path-1-inside-1_2052_1998)"/>
</svg>
