<svg width="21" height="21" viewBox="0 0 21 21" fill="none" xmlns="http://www.w3.org/2000/svg">
<path d="M8.02947 0.862908C7.65118 0.870543 7.57048 0.873407 7.22749 0.897266C5.43892 1.01942 3.88035 1.51474 2.71823 2.33072C2.36919 2.57504 1.97273 2.92338 1.70339 3.22019C0.667368 4.36065 0.111528 5.82942 0.0348601 7.62458C0.0217459 7.93761 0.0217459 11.4564 0.0348601 11.7045C0.0893344 12.7257 0.357671 13.6753 0.840879 14.5628C1.58233 15.9237 2.76766 17.0079 4.22938 17.6635C4.39483 17.738 4.65106 17.8411 4.76808 17.8802L4.83566 17.9031L4.83869 19.034L4.84172 20.1649L4.86492 20.2403C4.94159 20.4894 5.10097 20.6717 5.33602 20.7757C5.45203 20.8282 5.53273 20.8473 5.66085 20.854C5.81923 20.8626 5.9655 20.8339 6.10774 20.7662C6.25301 20.6975 6.25603 20.6946 7.33442 19.5207L8.36036 18.4041H10.2781C12.1241 18.4032 12.6386 18.3984 12.9423 18.3755C15.4612 18.1894 17.6856 17.0327 18.9153 15.269C19.4358 14.5218 19.7596 13.6915 19.8766 12.802C19.9059 12.5816 19.917 12.4241 19.924 12.1588C19.9311 11.8753 19.9987 8.06168 19.9987 7.94907C19.9987 7.88512 20.0017 7.86795 20.0128 7.86795C20.0239 7.86795 20.0269 7.85649 20.0239 7.81736C20.0209 7.79064 20.0169 7.66848 20.0148 7.54823C19.9876 6.32283 19.6275 5.07929 19.0202 4.11252C17.8439 2.2391 15.7426 1.13013 12.9675 0.915399C12.5932 0.886768 12.3733 0.881041 11.0508 0.86768C9.65463 0.853365 8.65391 0.851456 8.02947 0.862908ZM12.2865 2.28396C12.3753 2.28968 12.5498 2.30304 12.6749 2.3145C14.1841 2.44334 15.4289 2.84512 16.363 3.50459C16.7464 3.77468 17.1035 4.11252 17.3809 4.46564C18.0921 5.37037 18.4734 6.53947 18.5289 7.98247C18.536 8.15044 18.5057 11.5957 18.4956 11.8238C18.4764 12.2637 18.4169 12.6255 18.2999 13.0139C17.6805 15.0543 15.673 16.5078 13.0431 16.8189C12.5902 16.8733 12.688 16.8705 10.6654 16.8743L8.79212 16.8781L8.63777 17.047C8.55202 17.1396 7.8711 17.885 7.12359 18.7028C6.37608 19.5198 5.75366 20.1955 5.74054 20.2031C5.70019 20.2289 5.65278 20.2375 5.61243 20.227C5.57107 20.2165 5.51962 20.1802 5.49944 20.1468C5.49036 20.1315 5.48633 19.7297 5.48229 18.3535L5.47725 16.5803L5.33602 16.5298C4.58649 16.2616 3.9207 15.8627 3.3467 15.3368C2.3016 14.3796 1.67716 13.1055 1.5783 11.7255C1.56519 11.5327 1.56519 8.18861 1.5783 7.90135C1.6358 6.69599 1.94146 5.68722 2.5084 4.8302C3.26297 3.69165 4.46342 2.90525 6.03107 2.5235C6.55463 2.39562 7.11249 2.31545 7.76719 2.27251C7.79544 2.2706 8.78707 2.26964 9.97138 2.2706C11.4997 2.27155 12.1715 2.27537 12.2865 2.28396Z" fill="white"/>
<path d="M9.64045 4.43329C9.61523 4.44475 9.58497 4.47052 9.56984 4.49247C9.54664 4.52491 9.5426 4.54209 9.5426 4.59554C9.5426 4.65184 9.54664 4.66521 9.57287 4.70052C9.63138 4.77877 9.63844 4.77973 10.0218 4.78641C10.388 4.79309 10.5746 4.80741 10.8591 4.85322C12.2007 5.06604 13.4022 5.80472 14.1649 6.88506C14.5331 7.4071 14.7933 8.0093 14.9134 8.61818C14.9799 8.95698 14.9951 9.14308 14.9951 9.63363C14.9951 9.89321 14.9991 10.0431 15.0062 10.0679C15.0203 10.1165 15.0798 10.1719 15.1333 10.1872C15.1726 10.1986 15.1787 10.1977 15.22 10.1748C15.2533 10.1557 15.2725 10.1356 15.2917 10.0994L15.3179 10.0497V9.69184C15.3179 9.21371 15.3007 8.98466 15.2422 8.65063C14.9174 6.81157 13.5283 5.27314 11.657 4.68048C11.0931 4.50105 10.624 4.42661 10.0016 4.41707C9.68787 4.4123 9.68282 4.4123 9.64045 4.43329Z" fill="white"/>
<path d="M6.03205 4.99207C5.93419 5.01115 5.81919 5.05505 5.74555 5.09991C5.59726 5.19057 5.03436 5.62672 4.94558 5.72025C4.91431 5.75174 4.86286 5.81473 4.83058 5.85958C4.79729 5.90348 4.73576 5.98842 4.69238 6.04759C4.50575 6.29955 4.42808 6.51809 4.42909 6.79391C4.42909 6.94947 4.44523 7.05445 4.48961 7.18042C4.52997 7.29304 5.14129 8.52894 5.23712 8.69023C5.79195 9.62455 6.44766 10.5436 7.16592 11.393C7.60676 11.915 7.78329 12.0964 8.1404 12.396C9.19357 13.2788 10.3264 13.9975 11.5793 14.5777C12.0858 14.8115 12.3178 14.9031 12.5276 14.949C12.7909 15.0081 13.1016 15.0129 13.376 14.9623C13.8138 14.8821 14.2385 14.6493 14.52 14.3353C14.6602 14.1788 14.9436 13.8028 14.9951 13.7035C15.0728 13.5537 15.0909 13.4764 15.0899 13.2884C15.0899 13.1452 15.0869 13.1233 15.0617 13.045C15.0072 12.8713 14.9023 12.7091 14.7752 12.6003C14.6995 12.5363 13.0229 11.4779 12.9331 11.4378C12.8141 11.3854 12.7273 11.3672 12.5791 11.3663C12.4398 11.3663 12.3783 11.3768 12.2512 11.4235C12.1322 11.4674 12.0434 11.5361 11.7054 11.8425C11.5269 12.0047 11.3564 12.1555 11.3282 12.1775C11.1506 12.3073 10.9014 12.3674 10.6785 12.333C10.51 12.3073 10.4051 12.2567 10.0117 12.0124C9.50226 11.6946 9.04831 11.3605 8.59738 10.9721C8.3119 10.7259 7.96992 10.284 7.69755 9.80874C7.5543 9.55775 7.37575 9.16932 7.34246 9.03571C7.30917 8.90305 7.33741 8.74081 7.41408 8.62151C7.43325 8.59097 7.59768 8.41919 7.79237 8.22545C7.98202 8.03744 8.15654 7.8542 8.18176 7.81889C8.30181 7.64806 8.35326 7.45337 8.3351 7.23673C8.32602 7.12412 8.30383 7.05063 8.24027 6.92752C8.19084 6.82922 8.14343 6.771 7.55531 6.06382C7.20829 5.64676 6.90162 5.28028 6.87337 5.2507C6.75232 5.119 6.57578 5.02547 6.38209 4.9892C6.28828 4.97202 6.12384 4.97298 6.03205 4.99207Z" fill="white"/>
<path d="M10.0682 5.76224C9.99257 5.78896 9.93103 5.86818 9.93103 5.93975C9.93103 6.01324 10.0067 6.10581 10.0743 6.11536C10.0924 6.11822 10.2054 6.12204 10.3245 6.1249C11.0014 6.14017 11.5834 6.31005 12.1322 6.65171C12.8807 7.11839 13.4053 7.86089 13.5768 8.69691C13.6181 8.89638 13.6333 9.06625 13.6333 9.32966C13.6333 9.46231 13.6383 9.5902 13.6444 9.61406C13.6817 9.76962 13.8895 9.80875 13.9863 9.678C14.0025 9.65605 14.0206 9.63315 14.0267 9.62646C14.0479 9.60261 14.0297 9.0882 14.0015 8.87633C13.8885 8.06131 13.49 7.31118 12.8676 6.7481C12.2603 6.19934 11.5088 5.86627 10.6674 5.77369C10.4647 5.75079 10.1187 5.74411 10.0682 5.76224Z" fill="white"/>
<path d="M10.4253 7.05569C10.2649 7.07764 10.1872 7.2542 10.2901 7.36204C10.3435 7.4174 10.3829 7.42694 10.5917 7.43267C10.7904 7.43744 10.9004 7.45462 11.0638 7.50615C11.3009 7.58155 11.4986 7.69894 11.6872 7.87645C11.9233 8.10072 12.0645 8.34695 12.1311 8.6533C12.1533 8.75923 12.1705 9.01214 12.1624 9.13048C12.1573 9.21065 12.1694 9.25646 12.2078 9.30036C12.2633 9.36239 12.3773 9.39102 12.458 9.36239C12.5124 9.34235 12.5709 9.28318 12.58 9.23833C12.583 9.21924 12.5901 9.20397 12.5952 9.20397C12.6073 9.20397 12.6062 8.93675 12.5931 8.80314C12.5437 8.28682 12.2905 7.82777 11.8729 7.49756C11.5763 7.26184 11.1909 7.10723 10.8086 7.06715C10.6815 7.05379 10.4817 7.04806 10.4253 7.05569Z" fill="white"/>
</svg>
